HIERARCHY
ROOT newVegas:Hips
{
	OFFSET 0.000000 96.479958 0.000000
	CHANNELS 6 Xposition Yposition Zposition Xrotation Yrotation Zrotation
	JOINT newVegas:Pelvis
	{
		OFFSET 0.000000 0.000000 0.000000
		CHANNELS 3 Xrotation Yrotation Zrotation
		JOINT newVegas:LeftUpLeg
		{
			OFFSET 18.735201 -5.666702 -4.541200
			CHANNELS 3 Xrotation Yrotation Zrotation
			JOINT newVegas:LeftLeg
			{
				OFFSET -0.021200 -31.938179 0.493100
				CHANNELS 3 Xrotation Yrotation Zrotation
				JOINT newVegas:LeftFoot
				{
					OFFSET 0.021200 -31.938179 -4.336299
					CHANNELS 3 Xrotation Yrotation Zrotation
					JOINT newVegas:LeftToeBase
					{
						OFFSET 0.943001 -26.722000 15.023500
						CHANNELS 3 Xrotation Yrotation Zrotation
						End Site
						{
							OFFSET 0.000000 30.670183 0.000000
						}
					}
				}
				JOINT newVegas:Left_PantLeg
				{
					OFFSET 0.663870 -9.044666 -1.108900
					CHANNELS 3 Xrotation Yrotation Zrotation
					End Site
					{
						OFFSET 1.415995 20.635357 0.000000
					}
				}
			}
		}
		JOINT newVegas:RightUpLeg
		{
			OFFSET -18.735201 -5.666702 -4.541200
			CHANNELS 3 Xrotation Yrotation Zrotation
			JOINT newVegas:RightLeg
			{
				OFFSET 0.018946 -31.938133 0.493100
				CHANNELS 3 Xrotation Yrotation Zrotation
				JOINT newVegas:RightFoot
				{
					OFFSET -0.018946 -31.938126 -4.336299
					CHANNELS 3 Xrotation Yrotation Zrotation
					JOINT newVegas:RightToeBase
					{
						OFFSET -0.943001 -26.722004 15.023500
						CHANNELS 3 Xrotation Yrotation Zrotation
						End Site
						{
							OFFSET 0.000000 30.670187 0.000000
						}
					}
				}
				JOINT newVegas:Right_PantLeg
				{
					OFFSET -0.661674 -9.044716 -1.108900
					CHANNELS 3 Xrotation Yrotation Zrotation
					End Site
					{
						OFFSET -1.415958 20.635269 0.000000
					}
				}
			}
		}
	}
	JOINT newVegas:Spine
	{
		OFFSET 0.000000 10.199997 -0.299500
		CHANNELS 3 Xrotation Yrotation Zrotation
		JOINT newVegas:Spine1
		{
			OFFSET 0.000000 11.900002 -1.516600
			CHANNELS 3 Xrotation Yrotation Zrotation
			JOINT newVegas:Spine2
			{
				OFFSET 0.000000 13.600006 -2.842500
				CHANNELS 3 Xrotation Yrotation Zrotation
				JOINT newVegas:Neck
				{
					OFFSET 0.000000 9.624100 -2.890100
					CHANNELS 3 Xrotation Yrotation Zrotation
					JOINT newVegas:Head
					{
						OFFSET 0.000000 14.068802 -1.351900
						CHANNELS 3 Xrotation Yrotation Zrotation
						JOINT newVegas:Hair_Back
						{
							OFFSET 0.000000 3.231903 -17.524799
							CHANNELS 3 Xrotation Yrotation Zrotation
							End Site
							{
								OFFSET 0.000000 19.849884 0.000000
							}
						}
						JOINT newVegas:Hair_Front
						{
							OFFSET 0.000000 31.260406 4.573800
							CHANNELS 3 Xrotation Yrotation Zrotation
							JOINT newVegas:Hair_Front1
							{
								OFFSET 0.000000 2.284103 11.993300
								CHANNELS 3 Xrotation Yrotation Zrotation
								JOINT newVegas:Hair_Front2
								{
									OFFSET 0.000000 2.284103 11.993300
									CHANNELS 3 Xrotation Yrotation Zrotation
									End Site
									{
										OFFSET 0.000000 12.208862 0.000000
									}
								}
							}
						}
						JOINT newVegas:Jowel
						{
							OFFSET 0.000000 -7.458206 6.864100
							CHANNELS 3 Xrotation Yrotation Zrotation
							End Site
							{
								OFFSET 0.000000 19.849884 0.000000
							}
						}
					}
				}
				JOINT newVegas:LeftShoulder
				{
					OFFSET 15.263000 10.923401 -0.547700
					CHANNELS 3 Xrotation Yrotation Zrotation
					JOINT newVegas:LeftArm
					{
						OFFSET 25.438599 -2.830597 -13.032500
						CHANNELS 3 Xrotation Yrotation Zrotation
						JOINT newVegas:LeftForeArm
						{
							OFFSET 29.960503 0.000000 0.000000
							CHANNELS 3 Xrotation Yrotation Zrotation
							JOINT newVegas:LeftHand
							{
								OFFSET 27.849251 0.000000 0.000000
								CHANNELS 3 Xrotation Yrotation Zrotation
								JOINT newVegas:LeftHandThumb1
								{
									OFFSET 4.487587 -3.305161 6.305391
									CHANNELS 3 Xrotation Yrotation Zrotation
									JOINT newVegas:LeftHandThumb2
									{
										OFFSET 5.480453 -3.164139 3.164143
										CHANNELS 3 Xrotation Yrotation Zrotation
										JOINT newVegas:LeftHandThumb3
										{
											OFFSET 5.159721 -2.978973 2.978967
											CHANNELS 3 Xrotation Yrotation Zrotation
											End Site
											{
												OFFSET 2.494507 5.926697 1.738678
											}
										}
									}
								}
								JOINT newVegas:LeftHandIndex1
								{
									OFFSET 18.578728 -0.527832 5.208049
									CHANNELS 3 Xrotation Yrotation Zrotation
									JOINT newVegas:LeftHandIndex2
									{
										OFFSET 3.192009 0.000000 0.000000
										CHANNELS 3 Xrotation Yrotation Zrotation
										JOINT newVegas:LeftHandIndex3
										{
											OFFSET 3.835129 0.000000 0.000000
											CHANNELS 3 Xrotation Yrotation Zrotation
											End Site
											{
												OFFSET -0.034599 3.816971 0.371180
											}
										}
									}
								}
								JOINT newVegas:LeftHandMiddle1
								{
									OFFSET 18.476105 0.000000 0.000000
									CHANNELS 3 Xrotation Yrotation Zrotation
									JOINT newVegas:LeftHandMiddle2
									{
										OFFSET 3.324875 0.000000 0.000000
										CHANNELS 3 Xrotation Yrotation Zrotation
										JOINT newVegas:LeftHandMiddle3
										{
											OFFSET 4.596550 0.000000 0.000000
											CHANNELS 3 Xrotation Yrotation Zrotation
											End Site
											{
												OFFSET 0.057701 4.578827 0.399218
											}
										}
									}
								}
								JOINT newVegas:LeftHandRing1
								{
									OFFSET 17.732719 0.121887 -4.201567
									CHANNELS 3 Xrotation Yrotation Zrotation
									JOINT newVegas:LeftHandRing2
									{
										OFFSET 2.733170 0.000000 0.000000
										CHANNELS 3 Xrotation Yrotation Zrotation
										JOINT newVegas:LeftHandRing3
										{
											OFFSET 3.178268 0.000000 0.000000
											CHANNELS 3 Xrotation Yrotation Zrotation
											End Site
											{
												OFFSET 0.119102 3.170624 0.185394
											}
										}
									}
								}
								JOINT newVegas:LeftHandPinky1
								{
									OFFSET 15.989624 -0.606689 -7.535461
									CHANNELS 3 Xrotation Yrotation Zrotation
									JOINT newVegas:LeftHandPinky2
									{
										OFFSET 2.538986 0.000000 0.000000
										CHANNELS 3 Xrotation Yrotation Zrotation
										JOINT newVegas:LeftHandPinky3
										{
											OFFSET 2.593102 0.000000 0.000000
											CHANNELS 3 Xrotation Yrotation Zrotation
											End Site
											{
												OFFSET -0.150902 2.584198 0.152708
											}
										}
									}
								}
							}
							JOINT newVegas:Left_Sleeve
							{
								OFFSET 0.267448 -0.649796 0.577675
								CHANNELS 3 Xrotation Yrotation Zrotation
								End Site
								{
									OFFSET 0.000000 15.991241 0.000000
								}
							}
							JOINT newVegas:Left_CapeC
							{
								OFFSET 15.715958 -8.608795 -6.935905
								CHANNELS 3 Xrotation Yrotation Zrotation
								JOINT newVegas:Left_CapeC1
								{
									OFFSET 0.000000 -8.688499 0.000000
									CHANNELS 3 Xrotation Yrotation Zrotation
									End Site
									{
										OFFSET 0.000000 8.688499 0.000000
									}
								}
							}
						}
						JOINT newVegas:Left_CapeB
						{
							OFFSET 26.118385 -8.608795 -7.079235
							CHANNELS 3 Xrotation Yrotation Zrotation
							JOINT newVegas:Left_CapeB1
							{
								OFFSET 0.000000 -8.688499 0.000000
								CHANNELS 3 Xrotation Yrotation Zrotation
								End Site
								{
									OFFSET 0.000000 8.688499 0.000000
								}
							}
						}
						JOINT newVegas:Left_CapeA
						{
							OFFSET 5.115639 -8.608795 -10.395809
							CHANNELS 3 Xrotation Yrotation Zrotation
							JOINT newVegas:Left_CapeA1
							{
								OFFSET 0.000000 -8.688499 0.000000
								CHANNELS 3 Xrotation Yrotation Zrotation
								End Site
								{
									OFFSET 0.000000 8.688499 0.000000
								}
							}
						}
					}
				}
				JOINT newVegas:RightShoulder
				{
					OFFSET -15.263000 10.923401 -0.547700
					CHANNELS 3 Xrotation Yrotation Zrotation
					JOINT newVegas:RightArm
					{
						OFFSET -25.438599 -2.830597 -13.032500
						CHANNELS 3 Xrotation Yrotation Zrotation
						JOINT newVegas:RightForeArm
						{
							OFFSET -29.960503 0.000000 0.000000
							CHANNELS 3 Xrotation Yrotation Zrotation
							JOINT newVegas:RightHand
							{
								OFFSET -27.849251 0.000000 0.000000
								CHANNELS 3 Xrotation Yrotation Zrotation
								JOINT newVegas:RightHandThumb1
								{
									OFFSET -4.487587 -3.305161 6.305391
									CHANNELS 3 Xrotation Yrotation Zrotation
									JOINT newVegas:RightHandThumb2
									{
										OFFSET -5.480453 -3.164139 3.164143
										CHANNELS 3 Xrotation Yrotation Zrotation
										JOINT newVegas:RightHandThumb3
										{
											OFFSET -5.159721 -2.978973 2.978967
											CHANNELS 3 Xrotation Yrotation Zrotation
											End Site
											{
												OFFSET -2.494507 5.926697 1.738678
											}
										}
									}
								}
								JOINT newVegas:RightHandIndex1
								{
									OFFSET -18.578728 -0.527832 5.208049
									CHANNELS 3 Xrotation Yrotation Zrotation
									JOINT newVegas:RightHandIndex2
									{
										OFFSET -3.192009 0.000000 0.000000
										CHANNELS 3 Xrotation Yrotation Zrotation
										JOINT newVegas:RightHandIndex3
										{
											OFFSET -3.835129 0.000000 0.000000
											CHANNELS 3 Xrotation Yrotation Zrotation
											End Site
											{
												OFFSET 0.034599 3.816971 0.371180
											}
										}
									}
								}
								JOINT newVegas:RightHandMiddle1
								{
									OFFSET -18.476105 0.000000 0.000000
									CHANNELS 3 Xrotation Yrotation Zrotation
									JOINT newVegas:RightHandMiddle2
									{
										OFFSET -3.324875 0.000000 0.000000
										CHANNELS 3 Xrotation Yrotation Zrotation
										JOINT newVegas:RightHandMiddle3
										{
											OFFSET -4.596550 0.000000 0.000000
											CHANNELS 3 Xrotation Yrotation Zrotation
											End Site
											{
												OFFSET -0.057701 4.578827 0.399218
											}
										}
									}
								}
								JOINT newVegas:RightHandRing1
								{
									OFFSET -17.732719 0.121887 -4.201567
									CHANNELS 3 Xrotation Yrotation Zrotation
									JOINT newVegas:RightHandRing2
									{
										OFFSET -2.733170 0.000000 0.000000
										CHANNELS 3 Xrotation Yrotation Zrotation
										JOINT newVegas:RightHandRing3
										{
											OFFSET -3.178268 0.000000 0.000000
											CHANNELS 3 Xrotation Yrotation Zrotation
											End Site
											{
												OFFSET -0.119102 3.170624 0.185394
											}
										}
									}
								}
								JOINT newVegas:RightHandPinky1
								{
									OFFSET -15.989624 -0.606689 -7.535461
									CHANNELS 3 Xrotation Yrotation Zrotation
									JOINT newVegas:RightHandPinky2
									{
										OFFSET -2.538986 0.000000 0.000000
										CHANNELS 3 Xrotation Yrotation Zrotation
										JOINT newVegas:RightHandPinky3
										{
											OFFSET -2.593102 0.000000 0.000000
											CHANNELS 3 Xrotation Yrotation Zrotation
											End Site
											{
												OFFSET 0.150902 2.584198 0.152708
											}
										}
									}
								}
							}
							JOINT newVegas:Right_CapeC
							{
								OFFSET -15.715958 -8.608795 -6.935905
								CHANNELS 3 Xrotation Yrotation Zrotation
								JOINT newVegas:Right_CapeC1
								{
									OFFSET 0.000000 -8.688499 0.000000
									CHANNELS 3 Xrotation Yrotation Zrotation
									End Site
									{
										OFFSET 0.000000 8.688499 0.000000
									}
								}
							}
							JOINT newVegas:Right_Sleeve
							{
								OFFSET -0.267448 -0.649994 0.577675
								CHANNELS 3 Xrotation Yrotation Zrotation
								End Site
								{
									OFFSET 0.000000 15.991302 0.000000
								}
							}
						}
						JOINT newVegas:Right_CapeA
						{
							OFFSET -5.115540 -8.608795 -10.395824
							CHANNELS 3 Xrotation Yrotation Zrotation
							JOINT newVegas:Right_CapeA1
							{
								OFFSET 0.000000 -8.688499 0.000000
								CHANNELS 3 Xrotation Yrotation Zrotation
								End Site
								{
									OFFSET 0.000000 8.688499 0.000000
								}
							}
						}
						JOINT newVegas:Right_CapeB
						{
							OFFSET -26.118187 -8.608795 -7.079266
							CHANNELS 3 Xrotation Yrotation Zrotation
							JOINT newVegas:Right_CapeB1
							{
								OFFSET 0.000000 -8.688499 0.000000
								CHANNELS 3 Xrotation Yrotation Zrotation
								End Site
								{
									OFFSET 0.000000 8.688499 0.000000
								}
							}
						}
					}
				}
				JOINT newVegas:Left_Collar
				{
					OFFSET 18.625099 8.655502 8.828100
					CHANNELS 3 Xrotation Yrotation Zrotation
					JOINT newVegas:Left_Collar1
					{
						OFFSET 14.783401 10.540405 -1.259500
						CHANNELS 3 Xrotation Yrotation Zrotation
						End Site
						{
							OFFSET 0.000000 18.199875 0.000000
						}
					}
				}
				JOINT newVegas:Collar_Back
				{
					OFFSET 0.000000 15.630707 -20.132601
					CHANNELS 3 Xrotation Yrotation Zrotation
					End Site
					{
						OFFSET 0.000000 22.523010 0.000000
					}
				}
				JOINT newVegas:Left_Peck
				{
					OFFSET 17.239599 -5.132599 25.482599
					CHANNELS 3 Xrotation Yrotation Zrotation
					End Site
					{
						OFFSET 0.000000 22.523010 0.000000
					}
				}
				JOINT newVegas:Right_Peck
				{
					OFFSET -17.239599 -5.132202 25.482599
					CHANNELS 3 Xrotation Yrotation Zrotation
					End Site
					{
						OFFSET 0.000000 22.523010 0.000000
					}
				}
				JOINT newVegas:Right_Collar
				{
					OFFSET -18.625099 8.655792 8.828100
					CHANNELS 3 Xrotation Yrotation Zrotation
					JOINT newVegas:Right_Collar1
					{
						OFFSET -14.783401 10.539993 -1.259500
						CHANNELS 3 Xrotation Yrotation Zrotation
						End Site
						{
							OFFSET 0.000000 18.199631 0.000000
						}
					}
				}
			}
		}
		JOINT newVegas:Belly
		{
			OFFSET 0.000000 -6.540398 9.014299
			CHANNELS 3 Xrotation Yrotation Zrotation
			End Site
			{
				OFFSET 0.000000 11.566666 0.000000
			}
		}
	}
	JOINT newVegas:ElvisFacialAnim_Joint
	{
		OFFSET 1.000000 -95.330101 -8.825800
		CHANNELS 3 Xrotation Yrotation Zrotation
		End Site
		{
			OFFSET 0.000000 35.315800 0.000000
		}
	}
}
MOTION
Frames: 4
Frame Time: 0.016667
-3.067582 79.839333 79.316612 31.812654 13.674443 -8.046718 0.000001 -0.000002 0.000000 -2.839080 8.350078 4.798535 18.180905 21.445004 1.776020 -20.843478 1.095056 -26.999560 -0.000002 -0.000001 0.000000 -0.000000 0.000002 0.000002 -80.679642 -11.379911 -1.293736 72.885557 -32.100301 -1.863504 -14.561164 -0.264973 -0.331483 -0.000001 0.000001 0.000000 0.000004 -0.000003 0.000001 4.720605 0.170323 3.031527 9.441396 0.085013 4.172061 9.441399 0.085011 4.172064 -1.429936 0.120146 -0.121767 -1.429961 0.120147 -0.121776 -0.000000 -0.000000 -0.000000 -1.429947 0.120135 -0.121770 -1.429879 0.120174 -0.121774 0.000000 0.000001 0.000000 -0.000000 -0.000000 -0.000000 3.345518 -20.374550 5.851157 -45.404147 -21.632022 -43.071733 105.129555 -62.566220 117.849805 32.351676 22.518580 68.310552 -22.329917 -10.232693 -0.665749 -13.008771 33.638791 5.466823 0.000002 0.000003 -0.000003 -3.249109 -3.487675 -45.487697 -11.741047 -5.662301 -117.786312 0.000001 -0.000001 0.000001 -1.607305 -1.437568 -44.852831 -8.864468 -8.229468 -108.221622 -0.000001 0.000000 -0.000002 1.621467 4.447371 -42.845234 -1.055343 -8.990372 -99.406320 0.000000 -0.000001 0.000001 2.581090 6.861466 -50.366378 0.502822 -8.788590 -83.370279 0.000001 0.000002 -0.000003 0.000001 0.000000 -0.000000 0.000001 0.000000 -0.000000 0.000000 0.000001 -0.000000 0.000000 0.000001 -0.000001 0.000000 0.000001 -0.000003 0.000000 0.000001 -0.000001 -0.000001 0.000002 -0.000002 1.512602 10.066763 -3.702965 -39.856859 5.966722 40.669767 110.736669 51.476759 -131.206103 41.008558 -31.696121 -49.398793 -31.480574 10.386561 -14.209275 -13.008679 -33.638825 -5.466796 0.000001 0.000001 -0.000002 -3.485982 1.851574 32.874421 -8.875867 5.007749 106.188125 0.000001 -0.000001 -0.000000 -2.051668 0.230833 37.937090 -6.364979 7.372384 96.576887 0.000000 -0.000001 0.000002 2.774048 -3.553462 41.587021 -1.339045 10.439975 83.973126 0.000001 -0.000001 0.000004 4.714843 -4.516907 49.238776 -1.408702 11.737809 71.641963 0.000001 0.000002 -0.000004 0.000000 0.000004 0.000000 0.000001 0.000002 -0.000001 0.000000 0.000003 0.000000 -0.000001 0.000000 0.000003 -0.000000 0.000000 0.000002 -0.000001 0.000000 0.000003 0.000000 0.000000 0.000004 0.000000 0.000001 0.000001 0.000000 0.000001 0.000001 0.000000 0.000001 0.000001 0.000000 0.000001 0.000001 0.000000 0.000001 0.000001 0.000000 0.000001 0.000001 0.000000 0.000001 0.000001 -0.000004 0.000000 0.000000 0.000001 -0.000002 0.000000 
-3.099530 79.691437 79.486679 32.020405 13.675284 -8.092674 0.000001 -0.000001 -0.000000 -3.202854 8.324022 4.969043 18.719001 21.427118 1.752336 -20.886616 1.059202 -27.269848 0.000002 -0.000003 0.000001 0.000000 0.000000 -0.000002 -81.076429 -11.503464 -1.340970 73.344682 -32.099092 -1.869156 -14.664592 -0.255817 -0.407033 0.000002 0.000003 -0.000001 -0.000000 -0.000002 0.000001 4.639608 0.171029 3.034681 9.279513 0.081829 4.174583 9.279511 0.081827 4.174586 -1.441255 0.118868 -0.120947 -1.441223 0.118871 -0.120942 -0.000003 0.000001 -0.000000 -1.441215 0.118853 -0.120945 -1.441286 0.118900 -0.120950 0.000002 0.000000 -0.000001 -0.000003 0.000001 -0.000000 3.403883 -20.465914 6.046224 -45.550750 -21.701369 -42.949234 104.319364 -62.881098 117.063186 32.170724 22.449008 68.336275 -22.329931 -10.232700 -0.665756 -13.008770 33.638781 5.466830 0.000001 -0.000001 -0.000001 -3.249105 -3.487660 -45.487704 -11.741054 -5.662310 -117.786312 -0.000000 -0.000002 -0.000000 -1.607316 -1.437562 -44.852845 -8.864490 -8.229481 -108.221636 0.000001 -0.000000 -0.000001 1.621476 4.447374 -42.845240 -1.055344 -8.990374 -99.406327 -0.000003 0.000001 -0.000001 2.581080 6.861460 -50.366396 0.502839 -8.788596 -83.370279 -0.000001 -0.000002 -0.000000 0.000000 0.000002 0.000002 0.000000 0.000002 0.000002 -0.000001 0.000002 0.000002 0.000001 0.000002 0.000002 0.000002 0.000002 -0.000001 0.000001 0.000002 0.000002 0.000001 0.000003 0.000001 1.519938 10.005073 -3.875171 -40.127269 6.219999 40.746747 110.235258 51.780491 -130.620879 41.065816 -31.593989 -49.231973 -31.480578 10.386546 -14.209262 -13.008708 -33.638852 -5.466809 -0.000001 0.000000 -0.000002 -3.485992 1.851581 32.874448 -8.875866 5.007741 106.188145 0.000001 0.000001 -0.000003 -2.051673 0.230822 37.937118 -6.364964 7.372388 96.576887 0.000000 -0.000000 0.000004 2.774042 -3.553464 41.587062 -1.339066 10.439982 83.973153 -0.000000 0.000001 -0.000001 4.714841 -4.516901 49.238806 -1.408715 11.737784 71.641991 0.000001 0.000000 -0.000006 0.000001 0.000001 0.000000 0.000001 -0.000001 -0.000001 0.000001 0.000001 0.000001 -0.000001 -0.000001 0.000001 -0.000001 0.000000 0.000001 -0.000001 -0.000001 0.000001 -0.000001 0.000000 0.000003 -0.000001 -0.000000 0.000000 -0.000001 -0.000000 0.000000 -0.000001 -0.000000 0.000000 -0.000001 -0.000000 0.000000 -0.000001 -0.000000 0.000000 -0.000001 -0.000000 0.000000 -0.000001 -0.000000 0.000000 0.000001 0.000000 -0.000000 0.000001 -0.000001 -0.000000 
-3.127992 79.545105 79.653748 32.234542 13.680966 -8.142266 -0.000001 -0.000000 -0.000000 -3.572238 8.296054 5.138677 19.248038 21.409727 1.728849 -20.918264 1.021933 -27.539044 0.000001 0.000002 0.000000 0.000002 0.000002 -0.000000 -81.466753 -11.627901 -1.398751 73.793145 -32.089315 -1.873805 -14.778339 -0.250580 -0.468891 -0.000000 0.000000 -0.000001 -0.000000 0.000003 -0.000001 4.557702 0.172174 3.040172 9.115791 0.078894 4.180703 9.115794 0.078890 4.180705 -1.452684 0.118728 -0.120512 -1.452666 0.118731 -0.120510 0.000002 -0.000000 0.000000 -1.452634 0.118772 -0.120519 -1.452700 0.118643 -0.120496 0.000002 0.000000 -0.000000 0.000002 -0.000000 -0.000000 3.462213 -20.556773 6.238190 -45.726146 -21.783015 -42.867278 103.432457 -63.200403 116.209112 32.017956 22.348598 68.350755 -22.329932 -10.232703 -0.665744 -13.008786 33.638784 5.466821 0.000004 -0.000004 -0.000003 -3.249106 -3.487662 -45.487707 -11.741047 -5.662322 -117.786284 -0.000000 -0.000000 0.000001 -1.607316 -1.437571 -44.852821 -8.864473 -8.229479 -108.221622 -0.000003 0.000000 -0.000000 1.621462 4.447365 -42.845234 -1.055336 -8.990371 -99.406320 -0.000001 -0.000002 0.000002 2.581070 6.861460 -50.366385 0.502842 -8.788571 -83.370300 -0.000003 0.000002 -0.000004 -0.000002 0.000001 0.000000 -0.000002 0.000001 0.000000 -0.000003 0.000001 0.000000 -0.000003 0.000000 0.000001 -0.000003 0.000000 -0.000001 -0.000003 0.000000 0.000001 -0.000004 0.000001 0.000000 1.527258 9.940855 -4.054028 -40.408383 6.474588 40.823627 109.704060 52.094983 -130.008170 41.123845 -31.479556 -49.070009 -31.480581 10.386535 -14.209258 -13.008705 -33.638835 -5.466813 -0.000001 0.000000 -0.000002 -3.485972 1.851565 32.874428 -8.875861 5.007756 106.188145 -0.000000 0.000000 -0.000002 -2.051665 0.230812 37.937111 -6.364991 7.372400 96.576901 0.000000 -0.000001 -0.000001 2.774055 -3.553473 41.587048 -1.339058 10.439979 83.973160 0.000000 0.000001 0.000001 4.714836 -4.516912 49.238796 -1.408717 11.737818 71.641963 -0.000000 0.000003 0.000001 -0.000001 0.000002 0.000002 -0.000002 0.000000 0.000000 -0.000001 0.000002 0.000001 0.000001 0.000002 0.000000 0.000001 0.000003 -0.000000 0.000001 0.000002 0.000000 0.000001 0.000002 0.000002 0.000002 0.000000 -0.000001 0.000002 0.000000 -0.000001 0.000002 0.000000 -0.000001 0.000002 0.000000 -0.000001 0.000002 0.000000 -0.000001 0.000002 0.000000 -0.000001 0.000002 0.000000 -0.000001 -0.000001 -0.000001 0.000001 -0.000001 -0.000000 -0.000000 
-3.153533 79.398872 79.820297 32.450953 13.685881 -8.192089 -0.000000 0.000000 -0.000001 -3.939262 8.266580 5.305203 19.766523 21.392904 1.705667 -20.939769 0.983284 -27.806272 -0.000000 -0.000001 -0.000001 0.000002 -0.000001 -0.000003 -81.853540 -11.750584 -1.466841 74.239225 -32.056144 -1.876513 -14.896825 -0.248272 -0.520249 0.000001 0.000000 -0.000000 0.000001 0.000002 -0.000001 4.475358 0.173108 3.045849 8.951159 0.075002 4.186376 8.951168 0.075007 4.186377 -1.464159 0.119707 -0.120396 -1.464139 0.119705 -0.120393 -0.000001 -0.000001 0.000000 -1.464183 0.119708 -0.120398 -1.464198 0.119693 -0.120394 0.000003 0.000000 0.000001 -0.000001 -0.000001 0.000000 3.520938 -20.647262 6.429785 -45.923067 -21.869210 -42.821670 102.479284 -63.518335 115.301243 31.897291 22.218568 68.346493 -22.329927 -10.232701 -0.665747 -13.008791 33.638798 5.466840 -0.000003 0.000002 -0.000001 -3.249099 -3.487675 -45.487701 -11.741058 -5.662318 -117.786284 -0.000002 -0.000000 -0.000001 -1.607297 -1.437544 -44.852848 -8.864472 -8.229507 -108.221643 -0.000002 0.000000 -0.000001 1.621470 4.447377 -42.845240 -1.055322 -8.990373 -99.406314 -0.000001 -0.000002 0.000003 2.581086 6.861474 -50.366368 0.502837 -8.788597 -83.370279 -0.000000 -0.000003 -0.000002 -0.000000 0.000001 0.000001 -0.000000 0.000001 0.000001 -0.000001 0.000002 0.000001 -0.000002 0.000000 -0.000000 -0.000002 -0.000001 -0.000001 -0.000002 0.000000 -0.000000 -0.000003 0.000000 -0.000001 1.534749 9.876781 -4.238348 -40.697030 6.729575 40.910425 109.140747 52.419024 -129.364152 41.180536 -31.352030 -48.919734 -31.480567 10.386567 -14.209249 -13.008725 -33.638866 -5.466837 0.000001 0.000002 -0.000002 -3.485983 1.851573 32.874438 -8.875863 5.007757 106.188138 -0.000001 -0.000000 -0.000003 -2.051668 0.230818 37.937111 -6.364980 7.372402 96.576887 -0.000001 -0.000000 0.000004 2.774036 -3.553460 41.587051 -1.339056 10.439971 83.973132 0.000000 -0.000001 0.000001 4.714842 -4.516900 49.238796 -1.408737 11.737813 71.641984 0.000001 0.000003 -0.000000 0.000002 0.000001 -0.000001 0.000001 0.000001 -0.000000 0.000002 0.000001 -0.000001 0.000000 -0.000002 0.000002 0.000001 -0.000002 0.000003 0.000000 -0.000002 0.000002 0.000000 -0.000002 0.000005 -0.000002 0.000000 0.000001 -0.000002 0.000000 0.000001 -0.000002 0.000000 0.000001 -0.000002 0.000000 0.000001 -0.000002 0.000000 0.000001 -0.000002 0.000000 0.000001 -0.000002 0.000000 0.000001 -0.000003 -0.000000 -0.000000 -0.000000 0.000000 -0.000001 
